<?xml version="1.0" encoding="UTF-8"?><svg id="_图层_1" xmlns="http://www.w3.org/2000/svg" width="45.69mm" height="34.92mm" viewBox="0 0 129.5 98.99"><polygon points="129.25 33.48 107.89 25.59 107.89 .25 129.24 7.87 129.24 33.48 129.25 33.48" style="fill:#e4dced; stroke:#fff; stroke-linecap:round; stroke-linejoin:round; stroke-width:.5px;"/><polygon points="129.04 33.68 107.68 41.57 107.67 41.57 86.31 33.68 86.34 33.52 107.7 25.63 107.89 25.62 129.25 33.51 129.04 33.68" style="fill:#e4dced; stroke:#fff; stroke-linecap:round; stroke-linejoin:round; stroke-width:.5px;"/><polygon points="129.13 58.94 129.13 33.6 107.78 41.21 107.78 66.82 129.13 58.94" style="fill:#e4dced; stroke:#fff; stroke-linecap:round; stroke-linejoin:round; stroke-width:.5px;"/><polyline points="86.11 58.88 86.11 33.54 107.46 41.16 107.46 66.77" style="fill:#f2a5b8; stroke:#fff; stroke-linecap:round; stroke-linejoin:round; stroke-width:.5px;"/><line x1="86.11" y1="58.88" x2="107.47" y2="66.77" style="fill:#b2b8c5; stroke:#fff; stroke-linecap:round; stroke-linejoin:round; stroke-width:.5px;"/><polyline points="86.12 33.47 86.12 8.13 107.47 15.74 107.47 41.35" style="fill:#f2a5b8; stroke:#fff; stroke-linecap:round; stroke-linejoin:round; stroke-width:.5px;"/><line x1="86.12" y1="33.47" x2="107.48" y2="41.35" style="fill:#b2b8c5; stroke:#fff; stroke-linecap:round; stroke-linejoin:round; stroke-width:.5px;"/><polyline points="107.37 41.44 86.01 49.33 86.01 49.33 64.65 41.44 64.67 41.28 86.03 33.39 86.23 33.38 107.59 41.27" style="fill:#f2a5b8; stroke:#fff; stroke-linecap:round; stroke-linejoin:round; stroke-width:.5px;"/><polyline points="64.77 41.44 64.77 16.1 86.12 23.72 86.12 49.33" style="fill:#fcf3f8; stroke:#fff; stroke-linecap:round; stroke-linejoin:round; stroke-width:.5px;"/><polyline points="85.9 75.58 64.54 83.47 64.54 83.47 43.18 75.58 43.2 75.41 64.56 67.52 64.76 67.52 86.12 75.4" style="fill:#cae5d1; stroke:#fff; stroke-linecap:round; stroke-linejoin:round; stroke-width:.5px;"/><polyline points="85.9 24.16 64.54 32.05 64.54 32.05 43.18 24.16 43.2 24 64.56 16.11 64.76 16.1 86.12 23.99" style="fill:#f8c188; stroke:#fff; stroke-linecap:round; stroke-linejoin:round; stroke-width:.5px;"/><polyline points="43.29 75.49 43.29 50.15 64.63 57.77 64.63 83.38" style="fill:#def1f9; stroke:#fff; stroke-linecap:round; stroke-linejoin:round; stroke-width:.5px;"/><line x1="43.29" y1="75.49" x2="64.64" y2="83.38" style="fill:#def1f9; stroke:#fff; stroke-linecap:round; stroke-linejoin:round; stroke-width:.5px;"/><polyline points="64.43 57.68 43.08 65.56 43.07 65.56 21.71 57.68 21.74 57.51 43.09 49.62 43.29 49.61 64.65 57.5" style="fill:#def1f9; stroke:#fff; stroke-linecap:round; stroke-linejoin:round; stroke-width:.5px;"/><polyline points="21.83 57.59 21.83 32.25 43.18 39.87 43.18 65.48" style="fill:#def1f9; stroke:#fff; stroke-linecap:round; stroke-linejoin:round; stroke-width:.5px;"/><line x1="21.83" y1="57.59" x2="43.19" y2="65.48" style="fill:#def1f9; stroke:#fff; stroke-linecap:round; stroke-linejoin:round; stroke-width:.5px;"/><polyline points="43.29 49.7 43.29 24.36 64.64 31.98 64.64 57.59" style="fill:#def1f9; stroke:#fff; stroke-linecap:round; stroke-linejoin:round; stroke-width:.5px;"/><line x1="43.29" y1="49.7" x2="64.65" y2="57.59" style="fill:#def1f9; stroke:#fff; stroke-linecap:round; stroke-linejoin:round; stroke-width:.5px;"/><polyline points="64.43 83.55 43.08 91.44 43.07 91.44 21.71 83.55 21.74 83.39 43.09 75.5 43.29 75.49 64.65 83.38" style="fill:#def1f9; stroke:#fff; stroke-linecap:round; stroke-linejoin:round; stroke-width:.5px;"/><polyline points=".35 90.85 .35 65.51 21.69 73.13 21.69 98.74" style="fill:#f5f6c6; stroke:#fff; stroke-linecap:round; stroke-linejoin:round; stroke-width:.5px;"/><line x1=".35" y1="90.85" x2="21.7" y2="98.74" style="fill:#fff100; stroke:#fff; stroke-linecap:round; stroke-linejoin:round; stroke-width:.5px;"/><polyline points=".34 65.51 .34 40.17 21.69 47.79 21.69 73.4" style="fill:#f5f6c6; stroke:#fff; stroke-linecap:round; stroke-linejoin:round; stroke-width:.5px;"/><line x1=".34" y1="65.51" x2="21.7" y2="73.4" style="fill:#fff100; stroke:#fff; stroke-linecap:round; stroke-linejoin:round; stroke-width:.5px;"/><polyline points="43.06 65.51 43.06 40.17 21.72 47.79 21.72 73.4" style="fill:#f5f6c6; stroke:#fff; stroke-linecap:round; stroke-linejoin:round; stroke-width:.5px;"/><line x1="43.06" y1="65.51" x2="21.7" y2="73.4" style="fill:#fff100; stroke:#fff; stroke-linecap:round; stroke-linejoin:round; stroke-width:.5px;"/><polyline points="43.18 40.17 21.82 48.06 21.64 48.04 .28 40.16 .25 39.94 21.61 32.05 21.78 32.06 43.14 39.95" style="fill:#f5f6c6; stroke:#fff; stroke-linecap:round; stroke-linejoin:round; stroke-width:.5px;"/><polyline points="64.77 67.08 64.77 41.74 86.12 49.36 86.12 74.97" style="fill:#fcf3f8; stroke:#fff; stroke-linecap:round; stroke-linejoin:round; stroke-width:.5px;"/><polyline points="107.37 16.19 86.01 24.08 86.01 24.08 64.65 16.19 64.67 16.02 86.03 8.13 86.23 8.13 107.59 16.01" style="fill:#fcf3f8; stroke:#fff; stroke-linecap:round; stroke-linejoin:round; stroke-width:.5px;"/></svg>